<svg xmlns="http://www.w3.org/2000/svg" xmlns:xlink="http://www.w3.org/1999/xlink" width="500" zoomAndPan="magnify" viewBox="0 0 375 374.999991" height="500" preserveAspectRatio="xMidYMid meet" version="1.0"><path fill="#00adef" d="M 164.730469 137.554688 C 169 129.75 187.101562 113.441406 188.308594 116.171875 C 189.515625 118.898438 180.316406 125.339844 181.304688 126.253906 C 182.121094 127.011719 195.113281 112.539062 196.992188 115.109375 C 198.726562 117.480469 184.902344 127.835938 185.585938 128.65625 C 186.324219 129.539062 200.304688 115.820312 201.949219 117.820312 C 203.808594 120.078125 189.0625 131.191406 189.058594 133.019531 C 189.054688 134.652344 202.09375 122.210938 203.621094 123.988281 C 206.191406 126.976562 183.910156 142.417969 184.3125 144.777344 C 185.046875 149.121094 199.46875 150.167969 196.859375 157.019531 C 196.859375 157.019531 171.503906 148.894531 165.96875 154.710938 C 158.5625 162.492188 155.179688 169.808594 155.179688 169.808594 L 147.324219 154.894531 C 147.324219 154.894531 159.527344 147.074219 164.730469 137.554688 " fill-opacity="1" fill-rule="nonzero"/><path fill="#37b63f" d="M 146.761719 200.789062 C 138.953125 196.519531 122.648438 178.417969 125.375 177.210938 C 128.105469 176.003906 134.546875 185.203125 135.460938 184.214844 C 136.21875 183.398438 121.746094 170.40625 124.316406 168.527344 C 126.6875 166.792969 137.042969 180.617188 137.859375 179.933594 C 138.746094 179.195312 125.027344 165.214844 127.027344 163.570312 C 129.285156 161.710938 140.398438 176.457031 142.226562 176.460938 C 143.855469 176.464844 131.417969 163.425781 133.195312 161.898438 C 136.179688 159.328125 151.625 181.609375 153.984375 181.207031 C 158.324219 180.472656 159.375 166.050781 166.226562 168.660156 C 166.226562 168.660156 158.101562 194.015625 163.914062 199.550781 C 171.695312 206.957031 179.015625 210.339844 179.015625 210.339844 L 164.101562 218.195312 C 164.101562 218.195312 156.277344 205.992188 146.761719 200.789062 " fill-opacity="1" fill-rule="nonzero"/><path fill="#3d6abc" d="M 209.996094 218.757812 C 205.726562 226.566406 187.621094 242.871094 186.414062 240.144531 C 185.210938 237.414062 194.410156 230.972656 193.421875 230.058594 C 192.601562 229.300781 179.609375 243.773438 177.730469 241.203125 C 175.996094 238.832031 189.824219 228.476562 189.140625 227.660156 C 188.398438 226.773438 174.421875 240.492188 172.777344 238.492188 C 170.917969 236.234375 185.660156 225.121094 185.667969 223.292969 C 185.671875 221.664062 172.628906 234.101562 171.101562 232.324219 C 168.535156 229.339844 190.816406 213.894531 190.414062 211.535156 C 189.675781 207.195312 175.253906 206.144531 177.867188 199.292969 C 177.867188 199.292969 203.222656 207.417969 208.757812 201.605469 C 216.164062 193.824219 219.546875 186.503906 219.546875 186.503906 L 227.402344 201.417969 C 227.402344 201.417969 215.199219 209.242188 209.996094 218.757812 " fill-opacity="1" fill-rule="nonzero"/><path fill="#89cf25" d="M 239.265625 172.097656 C 240.179688 171.109375 246.621094 180.308594 249.347656 179.105469 C 252.078125 177.898438 235.769531 159.792969 227.964844 155.523438 C 226.46875 154.707031 225.015625 153.71875 223.632812 152.632812 C 216.675781 152.15625 209.507812 151.410156 208.808594 152.398438 C 208.40625 152.960938 208.304688 153.703125 208.386719 154.566406 C 209.183594 155.253906 209.992188 155.984375 210.808594 156.761719 C 216.625 162.296875 208.5 187.652344 208.5 187.652344 C 215.351562 190.265625 216.398438 175.84375 220.742188 175.105469 C 223.101562 174.703125 238.542969 196.984375 241.53125 194.417969 C 243.308594 192.890625 230.867188 179.847656 232.5 179.851562 C 234.328125 179.859375 245.441406 194.601562 247.699219 192.742188 C 249.699219 191.097656 235.980469 177.121094 236.863281 176.378906 C 237.683594 175.695312 248.039062 189.523438 250.410156 187.789062 C 252.980469 185.910156 238.507812 172.917969 239.265625 172.097656 " fill-opacity="1" fill-rule="nonzero"/><path fill="#f0441d" d="M 231.058594 185.753906 C 226.476562 180.5 221.933594 174.902344 220.742188 175.105469 C 220.0625 175.21875 219.464844 175.671875 218.910156 176.339844 C 218.988281 177.390625 219.042969 178.480469 219.070312 179.605469 C 219.269531 187.632812 195.59375 199.816406 195.59375 199.816406 C 198.59375 206.507812 209.53125 197.050781 213.121094 199.601562 C 215.074219 200.984375 210.238281 227.664062 214.167969 227.957031 C 216.503906 228.132812 216.929688 210.113281 218.082031 211.273438 C 219.371094 212.570312 216.800781 230.851562 219.714844 231.136719 C 222.289062 231.386719 222.472656 211.800781 223.621094 211.902344 C 224.683594 211.996094 222.230469 229.097656 225.132812 229.546875 C 228.28125 230.035156 227.234375 210.617188 228.347656 210.570312 C 229.691406 210.519531 227.742188 221.578125 230.523438 222.65625 C 233.308594 223.734375 234.578125 199.402344 232.074219 190.863281 C 231.597656 189.230469 231.269531 187.503906 231.058594 185.753906 " fill-opacity="1" fill-rule="nonzero"/><path fill="#f7c80b" d="M 174.65625 222.871094 C 176.289062 222.390625 178.015625 222.0625 179.765625 221.851562 C 185.019531 217.269531 190.617188 212.730469 190.414062 211.535156 C 190.300781 210.855469 189.847656 210.257812 189.179688 209.703125 C 188.128906 209.78125 187.039062 209.835938 185.914062 209.867188 C 177.886719 210.0625 165.703125 186.386719 165.703125 186.386719 C 159.011719 189.386719 168.46875 200.328125 165.917969 203.917969 C 164.535156 205.867188 137.855469 201.035156 137.5625 204.960938 C 137.386719 207.296875 155.40625 207.722656 154.246094 208.875 C 152.949219 210.164062 134.667969 207.59375 134.386719 210.507812 C 134.132812 213.082031 153.71875 213.269531 153.617188 214.417969 C 153.523438 215.476562 136.421875 213.023438 135.972656 215.925781 C 135.484375 219.074219 154.902344 218.027344 154.949219 219.140625 C 155 220.488281 143.941406 218.535156 142.863281 221.320312 C 141.785156 224.101562 166.117188 225.371094 174.65625 222.871094 " fill-opacity="1" fill-rule="nonzero"/><path fill="#9a158e" d="M 143.667969 170.558594 C 148.25 175.8125 152.789062 181.410156 153.984375 181.207031 C 154.664062 181.09375 155.261719 180.640625 155.816406 179.972656 C 155.738281 178.921875 155.683594 177.832031 155.652344 176.707031 C 155.457031 168.679688 179.132812 156.496094 179.132812 156.496094 C 176.132812 149.804688 165.191406 159.261719 161.601562 156.710938 C 159.652344 155.328125 164.484375 128.652344 160.558594 128.355469 C 158.222656 128.183594 157.796875 146.199219 156.644531 145.039062 C 155.355469 143.742188 157.925781 125.460938 155.011719 125.179688 C 152.4375 124.929688 152.25 144.511719 151.101562 144.410156 C 150.042969 144.316406 152.496094 127.21875 149.59375 126.765625 C 146.445312 126.277344 147.492188 145.699219 146.378906 145.742188 C 145.03125 145.792969 146.984375 134.734375 144.199219 133.65625 C 141.421875 132.582031 140.148438 156.910156 142.648438 165.453125 C 143.128906 167.085938 143.457031 168.8125 143.667969 170.558594 " fill-opacity="1" fill-rule="nonzero"/><path fill="#ec0b62" d="M 221.109375 141.898438 C 221.203125 140.835938 238.300781 143.289062 238.753906 140.386719 C 239.242188 137.238281 219.820312 138.285156 219.777344 137.171875 C 219.726562 135.828125 230.785156 137.777344 231.863281 134.996094 C 232.9375 132.210938 208.609375 130.941406 200.066406 133.445312 C 198.433594 133.921875 196.707031 134.25 194.960938 134.460938 C 189.707031 139.042969 184.109375 143.585938 184.3125 144.777344 C 184.425781 145.457031 184.878906 146.054688 185.546875 146.609375 C 186.597656 146.53125 187.6875 146.476562 188.8125 146.449219 C 196.839844 146.25 209.023438 169.925781 209.023438 169.925781 C 215.714844 166.925781 206.257812 155.988281 208.808594 152.398438 C 210.191406 150.445312 236.867188 155.28125 237.164062 151.351562 C 237.335938 149.015625 219.320312 148.589844 220.480469 147.4375 C 221.777344 146.148438 240.058594 148.71875 240.34375 145.804688 C 240.589844 143.230469 221.007812 143.046875 221.109375 141.898438 " fill-opacity="1" fill-rule="nonzero"/></svg>