<svg width="60" height="60" viewBox="0 0 60 60" fill="none" xmlns="http://www.w3.org/2000/svg">
<path d="M19.2826 10.7737C21.3044 7.07791 29.8762 -0.644797 30.4477 0.648178C31.0193 1.9393 26.6631 4.98954 27.1311 5.42238C27.5177 5.78123 33.67 -1.07209 34.5597 0.145046C35.381 1.26784 28.8348 6.17153 29.1585 6.55998C29.5081 6.97802 36.1283 0.4817 36.9071 1.42877C37.7875 2.49793 30.8047 7.76047 30.8029 8.62615C30.801 9.39934 36.9755 3.50789 37.6988 4.34953C38.9159 5.76459 28.3649 13.0766 28.5554 14.1939C28.9032 16.2508 35.7325 16.7466 34.4968 19.991C34.4968 19.991 22.4901 16.1435 19.869 18.8978C16.3619 22.5825 14.76 26.0471 14.76 26.0471L11.0402 18.9847C11.0402 18.9847 16.8188 15.2815 19.2826 10.7737Z" fill="#00ADEF"/>
<path d="M10.7737 40.7175C7.07606 38.6957 -0.644797 30.124 0.646328 29.5524C1.9393 28.9808 4.98954 33.337 5.42238 32.869C5.78123 32.4824 -1.07209 26.3302 0.145046 25.4404C1.26784 24.6191 6.17153 31.1654 6.55813 30.8417C6.97802 30.4921 0.4817 23.8718 1.42877 23.0931C2.49793 22.2126 7.76047 29.1954 8.62615 29.1973C9.39749 29.1991 3.50789 23.0246 4.34953 22.3014C5.76274 21.0843 13.0766 31.6352 14.1939 31.4447C16.249 31.097 16.7466 24.2677 19.991 25.5033C19.991 25.5033 16.1435 37.51 18.896 40.1311C22.5807 43.6383 26.0471 45.2401 26.0471 45.2401L18.9847 48.96C18.9847 48.96 15.2797 43.1814 10.7737 40.7175Z" fill="#37B63F"/>
<path d="M40.7175 49.2264C38.6957 52.924 30.1221 60.6449 29.5505 59.3538C28.9808 58.0608 33.337 55.0106 32.869 54.5777C32.4805 54.2189 26.3283 61.0722 25.4385 59.855C24.6173 58.7323 31.1654 53.8286 30.8417 53.442C30.4902 53.0221 23.8718 59.5184 23.0931 58.5713C22.2126 57.5022 29.1935 52.2396 29.1972 51.3739C29.1991 50.6026 23.0228 56.4922 22.2995 55.6506C21.0842 54.2374 31.6352 46.9234 31.4447 45.8062C31.0951 43.7511 24.2658 43.2535 25.5033 40.0091C25.5033 40.0091 37.51 43.8566 40.1311 41.1041C43.6382 37.4194 45.2401 33.953 45.2401 33.953L48.96 41.0153C48.96 41.0153 43.1813 44.7204 40.7175 49.2264Z" fill="#3D6ABC"/>
<path d="M54.5776 27.1311C55.0104 26.6631 58.0607 31.0192 59.3518 30.4495C60.6448 29.8779 52.9221 21.3043 49.2263 19.2826C48.5178 18.896 47.8297 18.428 47.1749 17.9138C43.8805 17.6881 40.4862 17.3348 40.1551 17.8028C39.9646 18.0691 39.9165 18.4206 39.9553 18.8294C40.3327 19.1549 40.7156 19.5008 41.1022 19.8689C43.8564 22.49 40.009 34.4968 40.009 34.4968C43.2534 35.7342 43.7492 28.905 45.8061 28.5554C46.9233 28.3648 54.2354 38.9158 55.6505 37.7005C56.4921 36.9773 50.6006 30.801 51.3738 30.8028C52.2395 30.8065 57.5021 37.7875 58.5712 36.907C59.5183 36.1282 53.022 29.5098 53.44 29.1584C53.8285 28.8347 58.7321 35.3828 59.8549 34.5615C61.0721 33.6718 54.2187 27.5195 54.5776 27.1311Z" fill="#89CF25"/>
<path d="M50.6913 33.5977C48.5216 31.1098 46.3703 28.4591 45.8062 28.5553C45.4843 28.6089 45.2013 28.8235 44.9386 29.1398C44.9756 29.6374 45.0015 30.1535 45.0145 30.6862C45.1088 34.4874 33.8975 40.2568 33.8975 40.2568C35.3181 43.4254 40.4974 38.9472 42.1973 40.1551C43.1222 40.8099 40.8322 53.4437 42.693 53.5824C43.7992 53.6656 44.0008 45.1327 44.5465 45.6821C45.1569 46.2962 43.9398 54.9531 45.3197 55.0881C46.5387 55.2065 46.6256 45.9318 47.1694 45.9799C47.6725 46.0243 46.5109 54.1225 47.8853 54.3352C49.3762 54.5665 48.8804 45.3714 49.4076 45.3492C50.0439 45.3251 49.1209 50.5618 50.4379 51.0723C51.7568 51.5828 52.358 40.0607 51.1723 36.0172C50.9466 35.244 50.7912 34.4264 50.6913 33.5977Z" fill="#F0441D"/>
<path d="M23.9827 51.1741C24.7559 50.9466 25.5735 50.7912 26.4022 50.6913C28.8901 48.5216 31.5408 46.3722 31.4446 45.8062C31.391 45.4843 31.1764 45.2013 30.8601 44.9386C30.3625 44.9756 29.8464 45.0015 29.3137 45.0163C25.5124 45.1088 19.7431 33.8975 19.7431 33.8975C16.5745 35.3181 21.0527 40.4992 19.8448 42.1991C19.19 43.1222 6.55621 40.834 6.41748 42.693C6.33424 43.7992 14.8671 44.0008 14.3178 44.5465C13.7036 45.1569 5.04682 43.9398 4.91363 45.3197C4.7934 46.5387 14.068 46.6274 14.02 47.1713C13.9756 47.6725 5.87735 46.5109 5.66463 47.8853C5.43341 49.3762 14.6285 48.8804 14.6507 49.4076C14.6748 50.0458 9.43812 49.1209 8.92759 50.4398C8.41706 51.7568 19.9392 52.358 23.9827 51.1741Z" fill="#F7C80B"/>
<path d="M9.30862 26.4021C11.4784 28.8901 13.6278 31.5407 14.1938 31.4446C14.5157 31.3909 14.7987 31.1763 15.0613 30.86C15.0244 30.3625 14.9985 29.8464 14.9837 29.3137C14.8912 25.5124 26.1025 19.743 26.1025 19.743C24.6819 16.5744 19.5007 21.0527 17.8008 19.8448C16.8778 19.19 19.1659 6.55803 17.3069 6.41745C16.2008 6.33606 15.9992 14.8671 15.4535 14.3177C14.8431 13.7036 16.0602 5.04678 14.6803 4.9136C13.4613 4.79522 13.3725 14.068 12.8287 14.0199C12.3274 13.9755 13.4891 5.87917 12.1147 5.6646C10.6238 5.43338 11.1195 14.6303 10.5924 14.6507C9.95419 14.6747 10.8791 9.43809 9.56019 8.92756C8.24502 8.41888 7.642 19.9391 8.82584 23.9845C9.05336 24.7577 9.20874 25.5753 9.30862 26.4021Z" fill="#9A158E"/>
<path d="M45.9799 12.8305C46.0243 12.3273 54.1207 13.489 54.3352 12.1146C54.5665 10.6237 45.3695 11.1195 45.3492 10.5923C45.3251 9.95597 50.5617 10.879 51.0723 9.56197C51.581 8.2431 40.0607 7.64193 36.0153 8.82762C35.2421 9.05329 34.4245 9.20867 33.5977 9.30856C31.1098 11.4783 28.4591 13.6296 28.5553 14.1937C28.6089 14.5156 28.8235 14.7986 29.1398 15.0613C29.6374 15.0243 30.1535 14.9984 30.6862 14.9854C34.4874 14.8911 40.2568 26.1024 40.2568 26.1024C43.4254 24.6818 38.9472 19.5025 40.1551 17.8026C40.8099 16.8777 53.4418 19.1677 53.5824 17.3069C53.6638 16.2007 45.1327 15.9991 45.6821 15.4534C46.2962 14.843 54.9531 16.0601 55.0881 14.6802C55.2046 13.4612 45.9318 13.3743 45.9799 12.8305Z" fill="#EC0B62"/>
</svg>
